<mxfile host="app.diagrams.net" modified="2024-07-04T11:43:27.007Z" agent="Mozilla/5.0 (Macintosh; Intel Mac OS X 10_15_7) AppleWebKit/605.1.15 (KHTML, like Gecko) Version/17.5 Safari/605.1.15" etag="v3It9JS3SU5d69o4n8tA" version="24.6.4" type="github">
  <diagram id="C5RBs43oDa-KdzZeNtuy" name="Page-1">
    <mxGraphModel dx="756" dy="640" grid="1" gridSize="10" guides="1" tooltips="1" connect="1" arrows="1" fold="1" page="1" pageScale="1" pageWidth="827" pageHeight="1169" math="0" shadow="0">
      <root>
        <mxCell id="WIyWlLk6GJQsqaUBKTNV-0" />
        <mxCell id="WIyWlLk6GJQsqaUBKTNV-1" parent="WIyWlLk6GJQsqaUBKTNV-0" />
        <mxCell id="WIyWlLk6GJQsqaUBKTNV-2" value="" style="rounded=0;html=1;jettySize=auto;orthogonalLoop=1;fontSize=11;endArrow=block;endFill=0;endSize=8;strokeWidth=1;shadow=0;labelBackgroundColor=none;edgeStyle=orthogonalEdgeStyle;" parent="WIyWlLk6GJQsqaUBKTNV-1" edge="1">
          <mxGeometry relative="1" as="geometry">
            <mxPoint x="413" y="110" as="sourcePoint" />
            <mxPoint x="413" y="160" as="targetPoint" />
            <Array as="points">
              <mxPoint x="413" y="150" />
              <mxPoint x="413" y="150" />
            </Array>
          </mxGeometry>
        </mxCell>
        <mxCell id="dRylAUvEp7F5T7CG9AiP-0" value="Start" style="ellipse;whiteSpace=wrap;html=1;" vertex="1" parent="WIyWlLk6GJQsqaUBKTNV-1">
          <mxGeometry x="363" y="60" width="100" height="50" as="geometry" />
        </mxCell>
        <mxCell id="dRylAUvEp7F5T7CG9AiP-4" value="หยิบใบรายการที่ต้องซื้อ" style="rounded=0;whiteSpace=wrap;html=1;" vertex="1" parent="WIyWlLk6GJQsqaUBKTNV-1">
          <mxGeometry x="336" y="160" width="156" height="60" as="geometry" />
        </mxCell>
        <mxCell id="dRylAUvEp7F5T7CG9AiP-5" value="" style="rounded=0;html=1;jettySize=auto;orthogonalLoop=1;fontSize=11;endArrow=block;endFill=0;endSize=8;strokeWidth=1;shadow=0;labelBackgroundColor=none;edgeStyle=orthogonalEdgeStyle;" edge="1" parent="WIyWlLk6GJQsqaUBKTNV-1">
          <mxGeometry relative="1" as="geometry">
            <mxPoint x="413" y="220" as="sourcePoint" />
            <mxPoint x="413" y="270" as="targetPoint" />
            <Array as="points">
              <mxPoint x="413" y="260" />
              <mxPoint x="413" y="260" />
            </Array>
          </mxGeometry>
        </mxCell>
        <mxCell id="dRylAUvEp7F5T7CG9AiP-6" value="หยิบเงินที่วางเตรียมไว้" style="rounded=0;whiteSpace=wrap;html=1;" vertex="1" parent="WIyWlLk6GJQsqaUBKTNV-1">
          <mxGeometry x="340" y="270" width="147" height="60" as="geometry" />
        </mxCell>
        <mxCell id="dRylAUvEp7F5T7CG9AiP-7" value="" style="rounded=0;html=1;jettySize=auto;orthogonalLoop=1;fontSize=11;endArrow=block;endFill=0;endSize=8;strokeWidth=1;shadow=0;labelBackgroundColor=none;edgeStyle=orthogonalEdgeStyle;" edge="1" parent="WIyWlLk6GJQsqaUBKTNV-1">
          <mxGeometry relative="1" as="geometry">
            <mxPoint x="414" y="330" as="sourcePoint" />
            <mxPoint x="414" y="380" as="targetPoint" />
            <Array as="points">
              <mxPoint x="414" y="370" />
              <mxPoint x="414" y="370" />
            </Array>
          </mxGeometry>
        </mxCell>
        <mxCell id="dRylAUvEp7F5T7CG9AiP-8" value="เดินออกไปใส่รองเท้าที่หน้าบ้าน" style="rounded=0;whiteSpace=wrap;html=1;" vertex="1" parent="WIyWlLk6GJQsqaUBKTNV-1">
          <mxGeometry x="319" y="380" width="190" height="60" as="geometry" />
        </mxCell>
        <mxCell id="dRylAUvEp7F5T7CG9AiP-9" value="" style="rounded=0;html=1;jettySize=auto;orthogonalLoop=1;fontSize=11;endArrow=block;endFill=0;endSize=8;strokeWidth=1;shadow=0;labelBackgroundColor=none;edgeStyle=orthogonalEdgeStyle;" edge="1" parent="WIyWlLk6GJQsqaUBKTNV-1">
          <mxGeometry relative="1" as="geometry">
            <mxPoint x="413" y="440" as="sourcePoint" />
            <mxPoint x="413" y="490" as="targetPoint" />
            <Array as="points">
              <mxPoint x="413" y="480" />
              <mxPoint x="413" y="480" />
            </Array>
          </mxGeometry>
        </mxCell>
        <mxCell id="dRylAUvEp7F5T7CG9AiP-10" value="เดินไปที่ตลาดใกล้บ้าน" style="rounded=0;whiteSpace=wrap;html=1;" vertex="1" parent="WIyWlLk6GJQsqaUBKTNV-1">
          <mxGeometry x="340" y="490" width="148" height="60" as="geometry" />
        </mxCell>
        <mxCell id="dRylAUvEp7F5T7CG9AiP-11" value="" style="rounded=0;html=1;jettySize=auto;orthogonalLoop=1;fontSize=11;endArrow=block;endFill=0;endSize=8;strokeWidth=1;shadow=0;labelBackgroundColor=none;edgeStyle=orthogonalEdgeStyle;" edge="1" parent="WIyWlLk6GJQsqaUBKTNV-1">
          <mxGeometry relative="1" as="geometry">
            <mxPoint x="413" y="550" as="sourcePoint" />
            <mxPoint x="413" y="600" as="targetPoint" />
            <Array as="points">
              <mxPoint x="413" y="590" />
              <mxPoint x="413" y="590" />
            </Array>
          </mxGeometry>
        </mxCell>
        <mxCell id="dRylAUvEp7F5T7CG9AiP-12" value="เตรียมข้ามถนนบริเวณทางม้าลาย" style="rounded=0;whiteSpace=wrap;html=1;" vertex="1" parent="WIyWlLk6GJQsqaUBKTNV-1">
          <mxGeometry x="314" y="600" width="200" height="60" as="geometry" />
        </mxCell>
        <mxCell id="dRylAUvEp7F5T7CG9AiP-13" value="" style="rounded=0;html=1;jettySize=auto;orthogonalLoop=1;fontSize=11;endArrow=block;endFill=0;endSize=8;strokeWidth=1;shadow=0;labelBackgroundColor=none;edgeStyle=orthogonalEdgeStyle;" edge="1" parent="WIyWlLk6GJQsqaUBKTNV-1">
          <mxGeometry relative="1" as="geometry">
            <mxPoint x="414" y="660" as="sourcePoint" />
            <mxPoint x="414" y="710" as="targetPoint" />
            <Array as="points">
              <mxPoint x="414" y="700" />
              <mxPoint x="414" y="700" />
            </Array>
          </mxGeometry>
        </mxCell>
        <mxCell id="dRylAUvEp7F5T7CG9AiP-14" value="มองซ้าย - ขวา" style="rounded=0;whiteSpace=wrap;html=1;" vertex="1" parent="WIyWlLk6GJQsqaUBKTNV-1">
          <mxGeometry x="354" y="710" width="120" height="60" as="geometry" />
        </mxCell>
        <mxCell id="dRylAUvEp7F5T7CG9AiP-15" value="" style="rounded=0;html=1;jettySize=auto;orthogonalLoop=1;fontSize=11;endArrow=block;endFill=0;endSize=8;strokeWidth=1;shadow=0;labelBackgroundColor=none;edgeStyle=orthogonalEdgeStyle;" edge="1" parent="WIyWlLk6GJQsqaUBKTNV-1">
          <mxGeometry relative="1" as="geometry">
            <mxPoint x="413" y="770" as="sourcePoint" />
            <mxPoint x="413" y="820" as="targetPoint" />
            <Array as="points">
              <mxPoint x="413" y="810" />
              <mxPoint x="413" y="810" />
            </Array>
          </mxGeometry>
        </mxCell>
        <mxCell id="dRylAUvEp7F5T7CG9AiP-17" value="มีรถหรือไม่" style="rhombus;whiteSpace=wrap;html=1;" vertex="1" parent="WIyWlLk6GJQsqaUBKTNV-1">
          <mxGeometry x="348" y="820" width="130" height="80" as="geometry" />
        </mxCell>
        <mxCell id="dRylAUvEp7F5T7CG9AiP-18" value="" style="rounded=0;html=1;jettySize=auto;orthogonalLoop=1;fontSize=11;endArrow=block;endFill=0;endSize=8;strokeWidth=1;shadow=0;labelBackgroundColor=none;edgeStyle=orthogonalEdgeStyle;" edge="1" parent="WIyWlLk6GJQsqaUBKTNV-1">
          <mxGeometry relative="1" as="geometry">
            <mxPoint x="413" y="900" as="sourcePoint" />
            <mxPoint x="413" y="950" as="targetPoint" />
            <Array as="points">
              <mxPoint x="413" y="940" />
              <mxPoint x="413" y="940" />
            </Array>
          </mxGeometry>
        </mxCell>
        <mxCell id="dRylAUvEp7F5T7CG9AiP-19" value="ข้ามถนน" style="rounded=0;whiteSpace=wrap;html=1;" vertex="1" parent="WIyWlLk6GJQsqaUBKTNV-1">
          <mxGeometry x="364" y="950" width="100" height="60" as="geometry" />
        </mxCell>
        <mxCell id="dRylAUvEp7F5T7CG9AiP-20" value="ซื้อของตามใบรายการที่ได้" style="rounded=0;whiteSpace=wrap;html=1;" vertex="1" parent="WIyWlLk6GJQsqaUBKTNV-1">
          <mxGeometry x="326" y="1060" width="174" height="60" as="geometry" />
        </mxCell>
        <mxCell id="dRylAUvEp7F5T7CG9AiP-21" value="" style="rounded=0;html=1;jettySize=auto;orthogonalLoop=1;fontSize=11;endArrow=block;endFill=0;endSize=8;strokeWidth=1;shadow=0;labelBackgroundColor=none;edgeStyle=orthogonalEdgeStyle;" edge="1" parent="WIyWlLk6GJQsqaUBKTNV-1">
          <mxGeometry relative="1" as="geometry">
            <mxPoint x="413" y="1010" as="sourcePoint" />
            <mxPoint x="413" y="1060" as="targetPoint" />
            <Array as="points">
              <mxPoint x="413" y="1050" />
              <mxPoint x="413" y="1050" />
            </Array>
          </mxGeometry>
        </mxCell>
        <mxCell id="9p4imzftp4YwQ79ZMZ6x-1" value="" style="rounded=0;html=1;jettySize=auto;orthogonalLoop=1;fontSize=11;endArrow=block;endFill=0;endSize=8;strokeWidth=1;shadow=0;labelBackgroundColor=none;edgeStyle=orthogonalEdgeStyle;" edge="1" parent="WIyWlLk6GJQsqaUBKTNV-1">
          <mxGeometry relative="1" as="geometry">
            <mxPoint x="413" y="1120" as="sourcePoint" />
            <mxPoint x="413.19" y="1211" as="targetPoint" />
            <Array as="points">
              <mxPoint x="412.79" y="1180" />
              <mxPoint x="412.79" y="1180" />
            </Array>
          </mxGeometry>
        </mxCell>
        <mxCell id="9p4imzftp4YwQ79ZMZ6x-3" value="" style="rounded=0;html=1;jettySize=auto;orthogonalLoop=1;fontSize=11;endArrow=block;endFill=0;endSize=8;strokeWidth=1;shadow=0;labelBackgroundColor=none;edgeStyle=orthogonalEdgeStyle;exitX=0;exitY=0.5;exitDx=0;exitDy=0;" edge="1" parent="WIyWlLk6GJQsqaUBKTNV-1" source="dRylAUvEp7F5T7CG9AiP-17">
          <mxGeometry relative="1" as="geometry">
            <mxPoint x="280" y="910" as="sourcePoint" />
            <mxPoint x="413" y="690" as="targetPoint" />
            <Array as="points">
              <mxPoint x="260" y="860" />
              <mxPoint x="260" y="690" />
            </Array>
          </mxGeometry>
        </mxCell>
        <mxCell id="9p4imzftp4YwQ79ZMZ6x-6" value="Yes" style="text;strokeColor=none;fillColor=none;align=left;verticalAlign=middle;spacingLeft=4;spacingRight=4;overflow=hidden;points=[[0,0.5],[1,0.5]];portConstraint=eastwest;rotatable=0;whiteSpace=wrap;html=1;" vertex="1" parent="WIyWlLk6GJQsqaUBKTNV-1">
          <mxGeometry x="294" y="830" width="42" height="30" as="geometry" />
        </mxCell>
        <mxCell id="9p4imzftp4YwQ79ZMZ6x-8" value="No" style="text;strokeColor=none;fillColor=none;align=left;verticalAlign=middle;spacingLeft=4;spacingRight=4;overflow=hidden;points=[[0,0.5],[1,0.5]];portConstraint=eastwest;rotatable=0;whiteSpace=wrap;html=1;" vertex="1" parent="WIyWlLk6GJQsqaUBKTNV-1">
          <mxGeometry x="413" y="910" width="40" height="30" as="geometry" />
        </mxCell>
        <mxCell id="9p4imzftp4YwQ79ZMZ6x-9" value="ซื้อใบกะเพรา 20 บาท" style="rounded=0;whiteSpace=wrap;html=1;" vertex="1" parent="WIyWlLk6GJQsqaUBKTNV-1">
          <mxGeometry x="354" y="1210" width="120" height="60" as="geometry" />
        </mxCell>
        <mxCell id="9p4imzftp4YwQ79ZMZ6x-10" value="" style="rounded=0;html=1;jettySize=auto;orthogonalLoop=1;fontSize=11;endArrow=block;endFill=0;endSize=8;strokeWidth=1;shadow=0;labelBackgroundColor=none;edgeStyle=orthogonalEdgeStyle;" edge="1" parent="WIyWlLk6GJQsqaUBKTNV-1">
          <mxGeometry relative="1" as="geometry">
            <mxPoint x="414" y="1270" as="sourcePoint" />
            <mxPoint x="414" y="1320" as="targetPoint" />
            <Array as="points">
              <mxPoint x="414" y="1310" />
              <mxPoint x="414" y="1310" />
            </Array>
          </mxGeometry>
        </mxCell>
        <mxCell id="9p4imzftp4YwQ79ZMZ6x-11" value="ซื้อไข่ไก่ 5 ฟอง" style="rounded=0;whiteSpace=wrap;html=1;" vertex="1" parent="WIyWlLk6GJQsqaUBKTNV-1">
          <mxGeometry x="354" y="1320" width="120" height="60" as="geometry" />
        </mxCell>
        <mxCell id="9p4imzftp4YwQ79ZMZ6x-12" value="" style="rounded=0;html=1;jettySize=auto;orthogonalLoop=1;fontSize=11;endArrow=block;endFill=0;endSize=8;strokeWidth=1;shadow=0;labelBackgroundColor=none;edgeStyle=orthogonalEdgeStyle;" edge="1" parent="WIyWlLk6GJQsqaUBKTNV-1">
          <mxGeometry relative="1" as="geometry">
            <mxPoint x="414" y="1380" as="sourcePoint" />
            <mxPoint x="414" y="1430" as="targetPoint" />
            <Array as="points">
              <mxPoint x="414" y="1420" />
              <mxPoint x="414" y="1420" />
            </Array>
          </mxGeometry>
        </mxCell>
        <mxCell id="9p4imzftp4YwQ79ZMZ6x-13" value="ซื้อหมูสามชั้นชิ้นใหญ่ 1 กิโลกรัม" style="rounded=0;whiteSpace=wrap;html=1;" vertex="1" parent="WIyWlLk6GJQsqaUBKTNV-1">
          <mxGeometry x="318" y="1430" width="190" height="60" as="geometry" />
        </mxCell>
        <mxCell id="9p4imzftp4YwQ79ZMZ6x-14" value="" style="rounded=0;html=1;jettySize=auto;orthogonalLoop=1;fontSize=11;endArrow=block;endFill=0;endSize=8;strokeWidth=1;shadow=0;labelBackgroundColor=none;edgeStyle=orthogonalEdgeStyle;" edge="1" parent="WIyWlLk6GJQsqaUBKTNV-1">
          <mxGeometry relative="1" as="geometry">
            <mxPoint x="414" y="1490" as="sourcePoint" />
            <mxPoint x="414" y="1540" as="targetPoint" />
            <Array as="points">
              <mxPoint x="414" y="1530" />
              <mxPoint x="414" y="1530" />
            </Array>
          </mxGeometry>
        </mxCell>
        <mxCell id="9p4imzftp4YwQ79ZMZ6x-15" value="ซื้อกระเทียมและพริก 20 บาท" style="rounded=0;whiteSpace=wrap;html=1;" vertex="1" parent="WIyWlLk6GJQsqaUBKTNV-1">
          <mxGeometry x="329" y="1540" width="170" height="60" as="geometry" />
        </mxCell>
        <mxCell id="9p4imzftp4YwQ79ZMZ6x-16" value="" style="rounded=0;html=1;jettySize=auto;orthogonalLoop=1;fontSize=11;endArrow=block;endFill=0;endSize=8;strokeWidth=1;shadow=0;labelBackgroundColor=none;edgeStyle=orthogonalEdgeStyle;" edge="1" parent="WIyWlLk6GJQsqaUBKTNV-1">
          <mxGeometry relative="1" as="geometry">
            <mxPoint x="413.82" y="1600" as="sourcePoint" />
            <mxPoint x="413.82" y="1650" as="targetPoint" />
            <Array as="points">
              <mxPoint x="413.82" y="1640" />
              <mxPoint x="413.82" y="1640" />
            </Array>
          </mxGeometry>
        </mxCell>
        <mxCell id="9p4imzftp4YwQ79ZMZ6x-17" value="ซื้อของครบใช่หรือไม่" style="rhombus;whiteSpace=wrap;html=1;" vertex="1" parent="WIyWlLk6GJQsqaUBKTNV-1">
          <mxGeometry x="321" y="1650" width="186" height="80" as="geometry" />
        </mxCell>
        <mxCell id="9p4imzftp4YwQ79ZMZ6x-18" value="" style="rounded=0;html=1;jettySize=auto;orthogonalLoop=1;fontSize=11;endArrow=block;endFill=0;endSize=8;strokeWidth=1;shadow=0;labelBackgroundColor=none;edgeStyle=orthogonalEdgeStyle;" edge="1" parent="WIyWlLk6GJQsqaUBKTNV-1">
          <mxGeometry relative="1" as="geometry">
            <mxPoint x="413.82" y="1729" as="sourcePoint" />
            <mxPoint x="413.82" y="1779" as="targetPoint" />
            <Array as="points">
              <mxPoint x="413.82" y="1769" />
              <mxPoint x="413.82" y="1769" />
            </Array>
          </mxGeometry>
        </mxCell>
        <mxCell id="9p4imzftp4YwQ79ZMZ6x-19" value="กลับบ้าน" style="rounded=0;whiteSpace=wrap;html=1;" vertex="1" parent="WIyWlLk6GJQsqaUBKTNV-1">
          <mxGeometry x="369" y="1780" width="90" height="60" as="geometry" />
        </mxCell>
        <mxCell id="9p4imzftp4YwQ79ZMZ6x-20" value="" style="rounded=0;html=1;jettySize=auto;orthogonalLoop=1;fontSize=11;endArrow=block;endFill=0;endSize=8;strokeWidth=1;shadow=0;labelBackgroundColor=none;edgeStyle=orthogonalEdgeStyle;" edge="1" parent="WIyWlLk6GJQsqaUBKTNV-1">
          <mxGeometry relative="1" as="geometry">
            <mxPoint x="413" y="1840" as="sourcePoint" />
            <mxPoint x="413" y="1890" as="targetPoint" />
            <Array as="points">
              <mxPoint x="413" y="1880" />
              <mxPoint x="413" y="1880" />
            </Array>
          </mxGeometry>
        </mxCell>
        <mxCell id="9p4imzftp4YwQ79ZMZ6x-21" value="ถึงบ้าน" style="rounded=0;whiteSpace=wrap;html=1;" vertex="1" parent="WIyWlLk6GJQsqaUBKTNV-1">
          <mxGeometry x="368" y="1890" width="91" height="60" as="geometry" />
        </mxCell>
        <mxCell id="9p4imzftp4YwQ79ZMZ6x-22" value="" style="rounded=0;html=1;jettySize=auto;orthogonalLoop=1;fontSize=11;endArrow=block;endFill=0;endSize=8;strokeWidth=1;shadow=0;labelBackgroundColor=none;edgeStyle=orthogonalEdgeStyle;" edge="1" parent="WIyWlLk6GJQsqaUBKTNV-1">
          <mxGeometry relative="1" as="geometry">
            <mxPoint x="413" y="1950" as="sourcePoint" />
            <mxPoint x="413" y="2000" as="targetPoint" />
            <Array as="points">
              <mxPoint x="413" y="1990" />
              <mxPoint x="413" y="1990" />
            </Array>
          </mxGeometry>
        </mxCell>
        <mxCell id="9p4imzftp4YwQ79ZMZ6x-23" value="ตวงข้าวใส่หม้อหุงข้าว" style="rounded=0;whiteSpace=wrap;html=1;" vertex="1" parent="WIyWlLk6GJQsqaUBKTNV-1">
          <mxGeometry x="342" y="2000" width="143" height="60" as="geometry" />
        </mxCell>
        <mxCell id="9p4imzftp4YwQ79ZMZ6x-24" value="" style="rounded=0;html=1;jettySize=auto;orthogonalLoop=1;fontSize=11;endArrow=block;endFill=0;endSize=8;strokeWidth=1;shadow=0;labelBackgroundColor=none;edgeStyle=orthogonalEdgeStyle;" edge="1" parent="WIyWlLk6GJQsqaUBKTNV-1">
          <mxGeometry relative="1" as="geometry">
            <mxPoint x="414" y="2060" as="sourcePoint" />
            <mxPoint x="414" y="2110" as="targetPoint" />
            <Array as="points">
              <mxPoint x="414" y="2100" />
              <mxPoint x="414" y="2100" />
            </Array>
          </mxGeometry>
        </mxCell>
        <mxCell id="9p4imzftp4YwQ79ZMZ6x-25" value="ล้างข้าว 3 รอบ" style="rounded=0;whiteSpace=wrap;html=1;" vertex="1" parent="WIyWlLk6GJQsqaUBKTNV-1">
          <mxGeometry x="354" y="2110" width="120" height="60" as="geometry" />
        </mxCell>
        <mxCell id="9p4imzftp4YwQ79ZMZ6x-26" value="" style="rounded=0;html=1;jettySize=auto;orthogonalLoop=1;fontSize=11;endArrow=block;endFill=0;endSize=8;strokeWidth=1;shadow=0;labelBackgroundColor=none;edgeStyle=orthogonalEdgeStyle;" edge="1" parent="WIyWlLk6GJQsqaUBKTNV-1">
          <mxGeometry relative="1" as="geometry">
            <mxPoint x="413" y="2170" as="sourcePoint" />
            <mxPoint x="413" y="2220" as="targetPoint" />
            <Array as="points">
              <mxPoint x="413" y="2210" />
              <mxPoint x="413" y="2210" />
            </Array>
          </mxGeometry>
        </mxCell>
        <mxCell id="9p4imzftp4YwQ79ZMZ6x-27" value="หุงข้าว" style="rounded=0;whiteSpace=wrap;html=1;" vertex="1" parent="WIyWlLk6GJQsqaUBKTNV-1">
          <mxGeometry x="369" y="2220" width="90" height="60" as="geometry" />
        </mxCell>
        <mxCell id="9p4imzftp4YwQ79ZMZ6x-28" value="" style="rounded=0;html=1;jettySize=auto;orthogonalLoop=1;fontSize=11;endArrow=block;endFill=0;endSize=8;strokeWidth=1;shadow=0;labelBackgroundColor=none;edgeStyle=orthogonalEdgeStyle;" edge="1" parent="WIyWlLk6GJQsqaUBKTNV-1">
          <mxGeometry relative="1" as="geometry">
            <mxPoint x="413" y="2280" as="sourcePoint" />
            <mxPoint x="413" y="2330" as="targetPoint" />
            <Array as="points">
              <mxPoint x="413" y="2320" />
              <mxPoint x="413" y="2320" />
            </Array>
          </mxGeometry>
        </mxCell>
        <mxCell id="9p4imzftp4YwQ79ZMZ6x-29" value="เตรียมทำหมูกรอบ" style="rounded=0;whiteSpace=wrap;html=1;" vertex="1" parent="WIyWlLk6GJQsqaUBKTNV-1">
          <mxGeometry x="352" y="2330" width="124" height="60" as="geometry" />
        </mxCell>
        <mxCell id="9p4imzftp4YwQ79ZMZ6x-30" value="" style="rounded=0;html=1;jettySize=auto;orthogonalLoop=1;fontSize=11;endArrow=block;endFill=0;endSize=8;strokeWidth=1;shadow=0;labelBackgroundColor=none;edgeStyle=orthogonalEdgeStyle;" edge="1" parent="WIyWlLk6GJQsqaUBKTNV-1">
          <mxGeometry relative="1" as="geometry">
            <mxPoint x="414" y="2390" as="sourcePoint" />
            <mxPoint x="414" y="2440" as="targetPoint" />
            <Array as="points">
              <mxPoint x="414" y="2430" />
              <mxPoint x="414" y="2430" />
            </Array>
          </mxGeometry>
        </mxCell>
        <mxCell id="9p4imzftp4YwQ79ZMZ6x-31" value="เตรียมหมูสามชั้นที่ซื้อมา" style="rounded=0;whiteSpace=wrap;html=1;" vertex="1" parent="WIyWlLk6GJQsqaUBKTNV-1">
          <mxGeometry x="334" y="2440" width="160" height="60" as="geometry" />
        </mxCell>
        <mxCell id="9p4imzftp4YwQ79ZMZ6x-32" value="" style="rounded=0;html=1;jettySize=auto;orthogonalLoop=1;fontSize=11;endArrow=block;endFill=0;endSize=8;strokeWidth=1;shadow=0;labelBackgroundColor=none;edgeStyle=orthogonalEdgeStyle;" edge="1" parent="WIyWlLk6GJQsqaUBKTNV-1">
          <mxGeometry relative="1" as="geometry">
            <mxPoint x="413" y="2500" as="sourcePoint" />
            <mxPoint x="413" y="2550" as="targetPoint" />
            <Array as="points">
              <mxPoint x="413" y="2540" />
              <mxPoint x="413" y="2540" />
            </Array>
          </mxGeometry>
        </mxCell>
        <mxCell id="9p4imzftp4YwQ79ZMZ6x-33" value="ตั้งหม้อรอน้ำเดือด" style="rounded=0;whiteSpace=wrap;html=1;" vertex="1" parent="WIyWlLk6GJQsqaUBKTNV-1">
          <mxGeometry x="354" y="2550" width="120" height="60" as="geometry" />
        </mxCell>
        <mxCell id="9p4imzftp4YwQ79ZMZ6x-34" value="" style="rounded=0;html=1;jettySize=auto;orthogonalLoop=1;fontSize=11;endArrow=block;endFill=0;endSize=8;strokeWidth=1;shadow=0;labelBackgroundColor=none;edgeStyle=orthogonalEdgeStyle;" edge="1" parent="WIyWlLk6GJQsqaUBKTNV-1">
          <mxGeometry relative="1" as="geometry">
            <mxPoint x="413" y="2610" as="sourcePoint" />
            <mxPoint x="413" y="2660" as="targetPoint" />
            <Array as="points">
              <mxPoint x="413" y="2650" />
              <mxPoint x="413" y="2650" />
            </Array>
          </mxGeometry>
        </mxCell>
        <mxCell id="9p4imzftp4YwQ79ZMZ6x-35" value="ใส่หมูสามชั้นลงไปในหม้อ" style="rounded=0;whiteSpace=wrap;html=1;" vertex="1" parent="WIyWlLk6GJQsqaUBKTNV-1">
          <mxGeometry x="334" y="2660" width="160" height="60" as="geometry" />
        </mxCell>
        <mxCell id="9p4imzftp4YwQ79ZMZ6x-36" value="" style="rounded=0;html=1;jettySize=auto;orthogonalLoop=1;fontSize=11;endArrow=block;endFill=0;endSize=8;strokeWidth=1;shadow=0;labelBackgroundColor=none;edgeStyle=orthogonalEdgeStyle;" edge="1" parent="WIyWlLk6GJQsqaUBKTNV-1">
          <mxGeometry relative="1" as="geometry">
            <mxPoint x="413" y="2720" as="sourcePoint" />
            <mxPoint x="413" y="2770" as="targetPoint" />
            <Array as="points">
              <mxPoint x="413" y="2760" />
              <mxPoint x="413" y="2760" />
            </Array>
          </mxGeometry>
        </mxCell>
        <mxCell id="9p4imzftp4YwQ79ZMZ6x-38" value="หมูสุกใช่หรือไม่" style="rhombus;whiteSpace=wrap;html=1;" vertex="1" parent="WIyWlLk6GJQsqaUBKTNV-1">
          <mxGeometry x="343" y="2770" width="141" height="80" as="geometry" />
        </mxCell>
        <mxCell id="9p4imzftp4YwQ79ZMZ6x-39" value="" style="rounded=0;html=1;jettySize=auto;orthogonalLoop=1;fontSize=11;endArrow=block;endFill=0;endSize=8;strokeWidth=1;shadow=0;labelBackgroundColor=none;edgeStyle=orthogonalEdgeStyle;" edge="1" parent="WIyWlLk6GJQsqaUBKTNV-1">
          <mxGeometry relative="1" as="geometry">
            <mxPoint x="413" y="2850" as="sourcePoint" />
            <mxPoint x="413" y="2900" as="targetPoint" />
            <Array as="points">
              <mxPoint x="413" y="2890" />
              <mxPoint x="413" y="2890" />
            </Array>
          </mxGeometry>
        </mxCell>
        <mxCell id="9p4imzftp4YwQ79ZMZ6x-40" value="ต้มหมูต่อไป" style="rounded=0;whiteSpace=wrap;html=1;" vertex="1" parent="WIyWlLk6GJQsqaUBKTNV-1">
          <mxGeometry x="363" y="2900" width="102" height="60" as="geometry" />
        </mxCell>
        <mxCell id="9p4imzftp4YwQ79ZMZ6x-41" value="" style="rounded=0;html=1;jettySize=auto;orthogonalLoop=1;fontSize=11;endArrow=block;endFill=0;endSize=8;strokeWidth=1;shadow=0;labelBackgroundColor=none;edgeStyle=orthogonalEdgeStyle;" edge="1" parent="WIyWlLk6GJQsqaUBKTNV-1">
          <mxGeometry relative="1" as="geometry">
            <mxPoint x="413" y="2960" as="sourcePoint" />
            <mxPoint x="413" y="3010" as="targetPoint" />
            <Array as="points">
              <mxPoint x="413" y="3000" />
              <mxPoint x="413" y="3000" />
            </Array>
          </mxGeometry>
        </mxCell>
        <mxCell id="9p4imzftp4YwQ79ZMZ6x-42" value="รอจนหมูสุก" style="rounded=0;whiteSpace=wrap;html=1;" vertex="1" parent="WIyWlLk6GJQsqaUBKTNV-1">
          <mxGeometry x="364" y="3010" width="100" height="60" as="geometry" />
        </mxCell>
        <mxCell id="9p4imzftp4YwQ79ZMZ6x-43" value="" style="rounded=0;html=1;jettySize=auto;orthogonalLoop=1;fontSize=11;endArrow=block;endFill=0;endSize=8;strokeWidth=1;shadow=0;labelBackgroundColor=none;edgeStyle=orthogonalEdgeStyle;entryX=0;entryY=0.5;entryDx=0;entryDy=0;" edge="1" parent="WIyWlLk6GJQsqaUBKTNV-1" source="9p4imzftp4YwQ79ZMZ6x-42" target="9p4imzftp4YwQ79ZMZ6x-38">
          <mxGeometry relative="1" as="geometry">
            <mxPoint x="326" y="3060" as="sourcePoint" />
            <mxPoint x="340" y="2810" as="targetPoint" />
            <Array as="points">
              <mxPoint x="290" y="3040" />
              <mxPoint x="290" y="2810" />
            </Array>
          </mxGeometry>
        </mxCell>
        <mxCell id="9p4imzftp4YwQ79ZMZ6x-44" value="Yes" style="text;strokeColor=none;fillColor=none;align=left;verticalAlign=middle;spacingLeft=4;spacingRight=4;overflow=hidden;points=[[0,0.5],[1,0.5]];portConstraint=eastwest;rotatable=0;whiteSpace=wrap;html=1;" vertex="1" parent="WIyWlLk6GJQsqaUBKTNV-1">
          <mxGeometry x="492" y="2780" width="40" height="30" as="geometry" />
        </mxCell>
        <mxCell id="9p4imzftp4YwQ79ZMZ6x-45" value="No" style="text;strokeColor=none;fillColor=none;align=left;verticalAlign=middle;spacingLeft=4;spacingRight=4;overflow=hidden;points=[[0,0.5],[1,0.5]];portConstraint=eastwest;rotatable=0;whiteSpace=wrap;html=1;" vertex="1" parent="WIyWlLk6GJQsqaUBKTNV-1">
          <mxGeometry x="419" y="2850" width="40" height="30" as="geometry" />
        </mxCell>
        <mxCell id="9p4imzftp4YwQ79ZMZ6x-46" value="" style="rounded=0;html=1;jettySize=auto;orthogonalLoop=1;fontSize=11;endArrow=block;endFill=0;endSize=8;strokeWidth=1;shadow=0;labelBackgroundColor=none;edgeStyle=orthogonalEdgeStyle;exitX=1;exitY=0.5;exitDx=0;exitDy=0;entryX=1;entryY=0.5;entryDx=0;entryDy=0;" edge="1" parent="WIyWlLk6GJQsqaUBKTNV-1" source="9p4imzftp4YwQ79ZMZ6x-38" target="9p4imzftp4YwQ79ZMZ6x-48">
          <mxGeometry relative="1" as="geometry">
            <mxPoint x="540" y="2900" as="sourcePoint" />
            <mxPoint x="490" y="3150" as="targetPoint" />
            <Array as="points">
              <mxPoint x="540" y="2810" />
              <mxPoint x="540" y="3150" />
            </Array>
          </mxGeometry>
        </mxCell>
        <mxCell id="9p4imzftp4YwQ79ZMZ6x-48" value="นำหมูออกมาพักไว้" style="rounded=0;whiteSpace=wrap;html=1;" vertex="1" parent="WIyWlLk6GJQsqaUBKTNV-1">
          <mxGeometry x="349" y="3120" width="130" height="60" as="geometry" />
        </mxCell>
        <mxCell id="9p4imzftp4YwQ79ZMZ6x-50" value="Yes" style="text;strokeColor=none;fillColor=none;align=left;verticalAlign=middle;spacingLeft=4;spacingRight=4;overflow=hidden;points=[[0,0.5],[1,0.5]];portConstraint=eastwest;rotatable=0;whiteSpace=wrap;html=1;" vertex="1" parent="WIyWlLk6GJQsqaUBKTNV-1">
          <mxGeometry x="419" y="1739" width="40" height="30" as="geometry" />
        </mxCell>
        <mxCell id="9p4imzftp4YwQ79ZMZ6x-51" value="" style="rounded=0;html=1;jettySize=auto;orthogonalLoop=1;fontSize=11;endArrow=block;endFill=0;endSize=8;strokeWidth=1;shadow=0;labelBackgroundColor=none;edgeStyle=orthogonalEdgeStyle;exitX=0;exitY=0.5;exitDx=0;exitDy=0;" edge="1" parent="WIyWlLk6GJQsqaUBKTNV-1" source="9p4imzftp4YwQ79ZMZ6x-17">
          <mxGeometry relative="1" as="geometry">
            <mxPoint x="250" y="1680" as="sourcePoint" />
            <mxPoint x="414" y="1180" as="targetPoint" />
            <Array as="points">
              <mxPoint x="270" y="1690" />
              <mxPoint x="270" y="1180" />
            </Array>
          </mxGeometry>
        </mxCell>
        <mxCell id="9p4imzftp4YwQ79ZMZ6x-52" value="No" style="text;strokeColor=none;fillColor=none;align=left;verticalAlign=middle;spacingLeft=4;spacingRight=4;overflow=hidden;points=[[0,0.5],[1,0.5]];portConstraint=eastwest;rotatable=0;whiteSpace=wrap;html=1;" vertex="1" parent="WIyWlLk6GJQsqaUBKTNV-1">
          <mxGeometry x="284" y="1660" width="30" height="30" as="geometry" />
        </mxCell>
        <mxCell id="9p4imzftp4YwQ79ZMZ6x-53" value="" style="rounded=0;html=1;jettySize=auto;orthogonalLoop=1;fontSize=11;endArrow=block;endFill=0;endSize=8;strokeWidth=1;shadow=0;labelBackgroundColor=none;edgeStyle=orthogonalEdgeStyle;" edge="1" parent="WIyWlLk6GJQsqaUBKTNV-1">
          <mxGeometry relative="1" as="geometry">
            <mxPoint x="413.78000000000003" y="3180" as="sourcePoint" />
            <mxPoint x="413.78000000000003" y="3230" as="targetPoint" />
            <Array as="points">
              <mxPoint x="413.78000000000003" y="3220" />
              <mxPoint x="413.78000000000003" y="3220" />
            </Array>
          </mxGeometry>
        </mxCell>
        <mxCell id="9p4imzftp4YwQ79ZMZ6x-55" value="นำมีดหรือส้อมมาจิ้มหนังหมู" style="rounded=0;whiteSpace=wrap;html=1;" vertex="1" parent="WIyWlLk6GJQsqaUBKTNV-1">
          <mxGeometry x="331" y="3230" width="166" height="60" as="geometry" />
        </mxCell>
        <mxCell id="9p4imzftp4YwQ79ZMZ6x-56" value="" style="rounded=0;html=1;jettySize=auto;orthogonalLoop=1;fontSize=11;endArrow=block;endFill=0;endSize=8;strokeWidth=1;shadow=0;labelBackgroundColor=none;edgeStyle=orthogonalEdgeStyle;" edge="1" parent="WIyWlLk6GJQsqaUBKTNV-1">
          <mxGeometry relative="1" as="geometry">
            <mxPoint x="414" y="3290" as="sourcePoint" />
            <mxPoint x="414" y="3340" as="targetPoint" />
            <Array as="points">
              <mxPoint x="414" y="3330" />
              <mxPoint x="414" y="3330" />
            </Array>
          </mxGeometry>
        </mxCell>
        <mxCell id="9p4imzftp4YwQ79ZMZ6x-57" value="ตั้งน้ำมันใส่กระทะไฟกลาง - แรงจนเดือด" style="rounded=0;whiteSpace=wrap;html=1;" vertex="1" parent="WIyWlLk6GJQsqaUBKTNV-1">
          <mxGeometry x="299" y="3340" width="230" height="60" as="geometry" />
        </mxCell>
        <mxCell id="9p4imzftp4YwQ79ZMZ6x-58" value="" style="rounded=0;html=1;jettySize=auto;orthogonalLoop=1;fontSize=11;endArrow=block;endFill=0;endSize=8;strokeWidth=1;shadow=0;labelBackgroundColor=none;edgeStyle=orthogonalEdgeStyle;" edge="1" parent="WIyWlLk6GJQsqaUBKTNV-1">
          <mxGeometry relative="1" as="geometry">
            <mxPoint x="413" y="3400" as="sourcePoint" />
            <mxPoint x="413" y="3450" as="targetPoint" />
            <Array as="points">
              <mxPoint x="413" y="3440" />
              <mxPoint x="413" y="3440" />
            </Array>
          </mxGeometry>
        </mxCell>
        <mxCell id="9p4imzftp4YwQ79ZMZ6x-59" value="ใส่ฝั่งหนังของหมูสามชั้นที่ต้มไว้ลงไปในกระทะ" style="rounded=0;whiteSpace=wrap;html=1;" vertex="1" parent="WIyWlLk6GJQsqaUBKTNV-1">
          <mxGeometry x="289" y="3450" width="250" height="60" as="geometry" />
        </mxCell>
        <mxCell id="9p4imzftp4YwQ79ZMZ6x-60" value="" style="rounded=0;html=1;jettySize=auto;orthogonalLoop=1;fontSize=11;endArrow=block;endFill=0;endSize=8;strokeWidth=1;shadow=0;labelBackgroundColor=none;edgeStyle=orthogonalEdgeStyle;" edge="1" parent="WIyWlLk6GJQsqaUBKTNV-1">
          <mxGeometry relative="1" as="geometry">
            <mxPoint x="414" y="3510" as="sourcePoint" />
            <mxPoint x="414" y="3560" as="targetPoint" />
            <Array as="points">
              <mxPoint x="414" y="3550" />
              <mxPoint x="414" y="3550" />
            </Array>
          </mxGeometry>
        </mxCell>
        <mxCell id="9p4imzftp4YwQ79ZMZ6x-61" value="ทอดหมูสามชั้นต่อไป" style="rounded=0;whiteSpace=wrap;html=1;" vertex="1" parent="WIyWlLk6GJQsqaUBKTNV-1">
          <mxGeometry x="340" y="3690" width="146" height="60" as="geometry" />
        </mxCell>
        <mxCell id="9p4imzftp4YwQ79ZMZ6x-62" value="หมูสามชั้นกรอบแล้วใช่หรือไม่" style="rhombus;whiteSpace=wrap;html=1;" vertex="1" parent="WIyWlLk6GJQsqaUBKTNV-1">
          <mxGeometry x="301" y="3560" width="226" height="80" as="geometry" />
        </mxCell>
        <mxCell id="9p4imzftp4YwQ79ZMZ6x-63" value="" style="rounded=0;html=1;jettySize=auto;orthogonalLoop=1;fontSize=11;endArrow=block;endFill=0;endSize=8;strokeWidth=1;shadow=0;labelBackgroundColor=none;edgeStyle=orthogonalEdgeStyle;" edge="1" parent="WIyWlLk6GJQsqaUBKTNV-1">
          <mxGeometry relative="1" as="geometry">
            <mxPoint x="413.77" y="3640" as="sourcePoint" />
            <mxPoint x="413.77" y="3690" as="targetPoint" />
            <Array as="points">
              <mxPoint x="413.77" y="3680" />
              <mxPoint x="413.77" y="3680" />
            </Array>
          </mxGeometry>
        </mxCell>
        <mxCell id="9p4imzftp4YwQ79ZMZ6x-64" value="" style="rounded=0;html=1;jettySize=auto;orthogonalLoop=1;fontSize=11;endArrow=block;endFill=0;endSize=8;strokeWidth=1;shadow=0;labelBackgroundColor=none;edgeStyle=orthogonalEdgeStyle;" edge="1" parent="WIyWlLk6GJQsqaUBKTNV-1">
          <mxGeometry relative="1" as="geometry">
            <mxPoint x="413" y="3750" as="sourcePoint" />
            <mxPoint x="413" y="3800" as="targetPoint" />
            <Array as="points">
              <mxPoint x="413" y="3790" />
              <mxPoint x="413" y="3790" />
            </Array>
          </mxGeometry>
        </mxCell>
        <mxCell id="9p4imzftp4YwQ79ZMZ6x-65" value="รอจนหมูสามชั้นกรอบ" style="rounded=0;whiteSpace=wrap;html=1;" vertex="1" parent="WIyWlLk6GJQsqaUBKTNV-1">
          <mxGeometry x="345" y="3800" width="136" height="60" as="geometry" />
        </mxCell>
        <mxCell id="9p4imzftp4YwQ79ZMZ6x-66" value="" style="rounded=0;html=1;jettySize=auto;orthogonalLoop=1;fontSize=11;endArrow=block;endFill=0;endSize=8;strokeWidth=1;shadow=0;labelBackgroundColor=none;edgeStyle=orthogonalEdgeStyle;exitX=1;exitY=0.5;exitDx=0;exitDy=0;entryX=1;entryY=0.5;entryDx=0;entryDy=0;" edge="1" parent="WIyWlLk6GJQsqaUBKTNV-1" source="9p4imzftp4YwQ79ZMZ6x-62" target="9p4imzftp4YwQ79ZMZ6x-71">
          <mxGeometry relative="1" as="geometry">
            <mxPoint x="590.04" y="3600" as="sourcePoint" />
            <mxPoint x="590" y="3900" as="targetPoint" />
            <Array as="points">
              <mxPoint x="590" y="3600" />
              <mxPoint x="590" y="3940" />
            </Array>
          </mxGeometry>
        </mxCell>
        <mxCell id="9p4imzftp4YwQ79ZMZ6x-67" value="Yes" style="text;strokeColor=none;fillColor=none;align=left;verticalAlign=middle;spacingLeft=4;spacingRight=4;overflow=hidden;points=[[0,0.5],[1,0.5]];portConstraint=eastwest;rotatable=0;whiteSpace=wrap;html=1;" vertex="1" parent="WIyWlLk6GJQsqaUBKTNV-1">
          <mxGeometry x="539" y="3570" width="40" height="30" as="geometry" />
        </mxCell>
        <mxCell id="9p4imzftp4YwQ79ZMZ6x-68" value="No" style="text;strokeColor=none;fillColor=none;align=left;verticalAlign=middle;spacingLeft=4;spacingRight=4;overflow=hidden;points=[[0,0.5],[1,0.5]];portConstraint=eastwest;rotatable=0;whiteSpace=wrap;html=1;" vertex="1" parent="WIyWlLk6GJQsqaUBKTNV-1">
          <mxGeometry x="419" y="3640" width="30" height="30" as="geometry" />
        </mxCell>
        <mxCell id="9p4imzftp4YwQ79ZMZ6x-69" value="" style="rounded=0;html=1;jettySize=auto;orthogonalLoop=1;fontSize=11;endArrow=block;endFill=0;endSize=8;strokeWidth=1;shadow=0;labelBackgroundColor=none;edgeStyle=orthogonalEdgeStyle;exitX=0;exitY=0.5;exitDx=0;exitDy=0;entryX=0;entryY=0.5;entryDx=0;entryDy=0;" edge="1" parent="WIyWlLk6GJQsqaUBKTNV-1" source="9p4imzftp4YwQ79ZMZ6x-65" target="9p4imzftp4YwQ79ZMZ6x-62">
          <mxGeometry relative="1" as="geometry">
            <mxPoint x="280" y="3950" as="sourcePoint" />
            <mxPoint x="220" y="3810" as="targetPoint" />
            <Array as="points">
              <mxPoint x="250" y="3830" />
              <mxPoint x="250" y="3600" />
            </Array>
          </mxGeometry>
        </mxCell>
        <mxCell id="9p4imzftp4YwQ79ZMZ6x-71" value="นำหมูกรอบที่ได้มาหั่นเป็นชิ้นพอดีคำ" style="rounded=0;whiteSpace=wrap;html=1;" vertex="1" parent="WIyWlLk6GJQsqaUBKTNV-1">
          <mxGeometry x="312" y="3910" width="203.5" height="60" as="geometry" />
        </mxCell>
        <mxCell id="9p4imzftp4YwQ79ZMZ6x-72" value="" style="rounded=0;html=1;jettySize=auto;orthogonalLoop=1;fontSize=11;endArrow=block;endFill=0;endSize=8;strokeWidth=1;shadow=0;labelBackgroundColor=none;edgeStyle=orthogonalEdgeStyle;" edge="1" parent="WIyWlLk6GJQsqaUBKTNV-1">
          <mxGeometry relative="1" as="geometry">
            <mxPoint x="413.02" y="3970" as="sourcePoint" />
            <mxPoint x="413.02" y="4020" as="targetPoint" />
            <Array as="points">
              <mxPoint x="413.02" y="4010" />
              <mxPoint x="413.02" y="4010" />
            </Array>
          </mxGeometry>
        </mxCell>
        <mxCell id="9p4imzftp4YwQ79ZMZ6x-73" value="นำพริกและกระเทียมมาโขลกให้เข้ากัน" style="rounded=0;whiteSpace=wrap;html=1;" vertex="1" parent="WIyWlLk6GJQsqaUBKTNV-1">
          <mxGeometry x="304" y="4020" width="220" height="60" as="geometry" />
        </mxCell>
        <mxCell id="9p4imzftp4YwQ79ZMZ6x-74" value="" style="rounded=0;html=1;jettySize=auto;orthogonalLoop=1;fontSize=11;endArrow=block;endFill=0;endSize=8;strokeWidth=1;shadow=0;labelBackgroundColor=none;edgeStyle=orthogonalEdgeStyle;" edge="1" parent="WIyWlLk6GJQsqaUBKTNV-1">
          <mxGeometry relative="1" as="geometry">
            <mxPoint x="413" y="4080" as="sourcePoint" />
            <mxPoint x="413" y="4130" as="targetPoint" />
            <Array as="points">
              <mxPoint x="413" y="4120" />
              <mxPoint x="413" y="4120" />
            </Array>
          </mxGeometry>
        </mxCell>
        <mxCell id="9p4imzftp4YwQ79ZMZ6x-75" value="ตั้งกระทะใส่น้ำมันพืชด้วยไฟกลาง" style="rounded=0;whiteSpace=wrap;html=1;" vertex="1" parent="WIyWlLk6GJQsqaUBKTNV-1">
          <mxGeometry x="315" y="4130" width="197" height="60" as="geometry" />
        </mxCell>
        <mxCell id="9p4imzftp4YwQ79ZMZ6x-76" value="" style="rounded=0;html=1;jettySize=auto;orthogonalLoop=1;fontSize=11;endArrow=block;endFill=0;endSize=8;strokeWidth=1;shadow=0;labelBackgroundColor=none;edgeStyle=orthogonalEdgeStyle;" edge="1" parent="WIyWlLk6GJQsqaUBKTNV-1">
          <mxGeometry relative="1" as="geometry">
            <mxPoint x="413.00000000000006" y="4190" as="sourcePoint" />
            <mxPoint x="413.00000000000006" y="4240" as="targetPoint" />
            <Array as="points">
              <mxPoint x="413.00000000000006" y="4230" />
              <mxPoint x="413.00000000000006" y="4230" />
            </Array>
          </mxGeometry>
        </mxCell>
        <mxCell id="9p4imzftp4YwQ79ZMZ6x-77" value="ใส่พริกและกระเทียมที่โขลกไว้ลงไปผัดจนหอม" style="rounded=0;whiteSpace=wrap;html=1;" vertex="1" parent="WIyWlLk6GJQsqaUBKTNV-1">
          <mxGeometry x="288" y="4240" width="251" height="60" as="geometry" />
        </mxCell>
        <mxCell id="9p4imzftp4YwQ79ZMZ6x-78" value="" style="rounded=0;html=1;jettySize=auto;orthogonalLoop=1;fontSize=11;endArrow=block;endFill=0;endSize=8;strokeWidth=1;shadow=0;labelBackgroundColor=none;edgeStyle=orthogonalEdgeStyle;" edge="1" parent="WIyWlLk6GJQsqaUBKTNV-1">
          <mxGeometry relative="1" as="geometry">
            <mxPoint x="413" y="4300" as="sourcePoint" />
            <mxPoint x="413" y="4350" as="targetPoint" />
            <Array as="points">
              <mxPoint x="413" y="4340" />
              <mxPoint x="413" y="4340" />
            </Array>
          </mxGeometry>
        </mxCell>
        <mxCell id="9p4imzftp4YwQ79ZMZ6x-79" value="ใส่หมูกรอบที่หั่นไว้ลงไปผัดให้เข้ากัน" style="rounded=0;whiteSpace=wrap;html=1;" vertex="1" parent="WIyWlLk6GJQsqaUBKTNV-1">
          <mxGeometry x="309" y="4350" width="210" height="60" as="geometry" />
        </mxCell>
        <mxCell id="9p4imzftp4YwQ79ZMZ6x-80" value="" style="rounded=0;html=1;jettySize=auto;orthogonalLoop=1;fontSize=11;endArrow=block;endFill=0;endSize=8;strokeWidth=1;shadow=0;labelBackgroundColor=none;edgeStyle=orthogonalEdgeStyle;" edge="1" parent="WIyWlLk6GJQsqaUBKTNV-1">
          <mxGeometry relative="1" as="geometry">
            <mxPoint x="413.46000000000004" y="4410" as="sourcePoint" />
            <mxPoint x="413.46000000000004" y="4460" as="targetPoint" />
            <Array as="points">
              <mxPoint x="413.46000000000004" y="4450" />
              <mxPoint x="413.46000000000004" y="4450" />
            </Array>
          </mxGeometry>
        </mxCell>
        <mxCell id="9p4imzftp4YwQ79ZMZ6x-81" value="ปรุงรสด้วยซอสถั่วเหลืองและซอสหอยนางรม" style="rounded=0;whiteSpace=wrap;html=1;" vertex="1" parent="WIyWlLk6GJQsqaUBKTNV-1">
          <mxGeometry x="290" y="4460" width="247" height="60" as="geometry" />
        </mxCell>
        <mxCell id="9p4imzftp4YwQ79ZMZ6x-82" value="" style="rounded=0;html=1;jettySize=auto;orthogonalLoop=1;fontSize=11;endArrow=block;endFill=0;endSize=8;strokeWidth=1;shadow=0;labelBackgroundColor=none;edgeStyle=orthogonalEdgeStyle;" edge="1" parent="WIyWlLk6GJQsqaUBKTNV-1">
          <mxGeometry relative="1" as="geometry">
            <mxPoint x="413.03000000000003" y="4520" as="sourcePoint" />
            <mxPoint x="413.03000000000003" y="4570" as="targetPoint" />
            <Array as="points">
              <mxPoint x="413.03000000000003" y="4560" />
              <mxPoint x="413.03000000000003" y="4560" />
            </Array>
          </mxGeometry>
        </mxCell>
        <mxCell id="9p4imzftp4YwQ79ZMZ6x-83" value="ใส่ใบกะเพราลงไปแล้วผัดให้เข้ากันอีกครั้ง" style="rounded=0;whiteSpace=wrap;html=1;" vertex="1" parent="WIyWlLk6GJQsqaUBKTNV-1">
          <mxGeometry x="295" y="4570" width="237" height="60" as="geometry" />
        </mxCell>
        <mxCell id="9p4imzftp4YwQ79ZMZ6x-84" value="" style="rounded=0;html=1;jettySize=auto;orthogonalLoop=1;fontSize=11;endArrow=block;endFill=0;endSize=8;strokeWidth=1;shadow=0;labelBackgroundColor=none;edgeStyle=orthogonalEdgeStyle;" edge="1" parent="WIyWlLk6GJQsqaUBKTNV-1">
          <mxGeometry relative="1" as="geometry">
            <mxPoint x="413" y="4630" as="sourcePoint" />
            <mxPoint x="413" y="4680" as="targetPoint" />
            <Array as="points">
              <mxPoint x="413" y="4670" />
              <mxPoint x="413" y="4670" />
            </Array>
          </mxGeometry>
        </mxCell>
        <mxCell id="9p4imzftp4YwQ79ZMZ6x-85" value="ตักผัดกะเพราใส่ลงในจาน" style="rounded=0;whiteSpace=wrap;html=1;" vertex="1" parent="WIyWlLk6GJQsqaUBKTNV-1">
          <mxGeometry x="331" y="4680" width="166" height="60" as="geometry" />
        </mxCell>
        <mxCell id="9p4imzftp4YwQ79ZMZ6x-86" value="" style="rounded=0;html=1;jettySize=auto;orthogonalLoop=1;fontSize=11;endArrow=block;endFill=0;endSize=8;strokeWidth=1;shadow=0;labelBackgroundColor=none;edgeStyle=orthogonalEdgeStyle;" edge="1" parent="WIyWlLk6GJQsqaUBKTNV-1">
          <mxGeometry relative="1" as="geometry">
            <mxPoint x="413" y="4740" as="sourcePoint" />
            <mxPoint x="413" y="4790" as="targetPoint" />
            <Array as="points">
              <mxPoint x="413" y="4780" />
              <mxPoint x="413" y="4780" />
            </Array>
          </mxGeometry>
        </mxCell>
        <mxCell id="9p4imzftp4YwQ79ZMZ6x-87" value="ตอกไข่ใส่ชามที่หนึ่ง 4 ฟอง&lt;div&gt;ชามที่สอง 1 ฟอง&lt;/div&gt;" style="rounded=0;whiteSpace=wrap;html=1;" vertex="1" parent="WIyWlLk6GJQsqaUBKTNV-1">
          <mxGeometry x="333" y="4790" width="162" height="60" as="geometry" />
        </mxCell>
        <mxCell id="9p4imzftp4YwQ79ZMZ6x-88" value="" style="rounded=0;html=1;jettySize=auto;orthogonalLoop=1;fontSize=11;endArrow=block;endFill=0;endSize=8;strokeWidth=1;shadow=0;labelBackgroundColor=none;edgeStyle=orthogonalEdgeStyle;" edge="1" parent="WIyWlLk6GJQsqaUBKTNV-1">
          <mxGeometry relative="1" as="geometry">
            <mxPoint x="413" y="4850" as="sourcePoint" />
            <mxPoint x="413" y="4900" as="targetPoint" />
            <Array as="points">
              <mxPoint x="413" y="4890" />
              <mxPoint x="413" y="4890" />
            </Array>
          </mxGeometry>
        </mxCell>
        <mxCell id="9p4imzftp4YwQ79ZMZ6x-89" value="ตีไข่ในชามที่หนึ่งพร้อมปรุงรส" style="rounded=0;whiteSpace=wrap;html=1;" vertex="1" parent="WIyWlLk6GJQsqaUBKTNV-1">
          <mxGeometry x="325" y="4900" width="177" height="60" as="geometry" />
        </mxCell>
        <mxCell id="9p4imzftp4YwQ79ZMZ6x-90" value="" style="rounded=0;html=1;jettySize=auto;orthogonalLoop=1;fontSize=11;endArrow=block;endFill=0;endSize=8;strokeWidth=1;shadow=0;labelBackgroundColor=none;edgeStyle=orthogonalEdgeStyle;" edge="1" parent="WIyWlLk6GJQsqaUBKTNV-1">
          <mxGeometry relative="1" as="geometry">
            <mxPoint x="413" y="4960" as="sourcePoint" />
            <mxPoint x="413" y="5010" as="targetPoint" />
            <Array as="points">
              <mxPoint x="413" y="5000" />
              <mxPoint x="413" y="5000" />
            </Array>
          </mxGeometry>
        </mxCell>
        <mxCell id="9p4imzftp4YwQ79ZMZ6x-91" value="ตั้งกระทะบนเตาและใส่น้ำมันพืช" style="rounded=0;whiteSpace=wrap;html=1;" vertex="1" parent="WIyWlLk6GJQsqaUBKTNV-1">
          <mxGeometry x="319" y="5010" width="190" height="60" as="geometry" />
        </mxCell>
        <mxCell id="9p4imzftp4YwQ79ZMZ6x-92" value="" style="rounded=0;html=1;jettySize=auto;orthogonalLoop=1;fontSize=11;endArrow=block;endFill=0;endSize=8;strokeWidth=1;shadow=0;labelBackgroundColor=none;edgeStyle=orthogonalEdgeStyle;" edge="1" parent="WIyWlLk6GJQsqaUBKTNV-1">
          <mxGeometry relative="1" as="geometry">
            <mxPoint x="413" y="5070" as="sourcePoint" />
            <mxPoint x="413" y="5120" as="targetPoint" />
            <Array as="points">
              <mxPoint x="413" y="5110" />
              <mxPoint x="413" y="5110" />
            </Array>
          </mxGeometry>
        </mxCell>
        <mxCell id="9p4imzftp4YwQ79ZMZ6x-93" value="ใส่ไข่ชามที่หนึ่งลงไปในกระทะ" style="rounded=0;whiteSpace=wrap;html=1;" vertex="1" parent="WIyWlLk6GJQsqaUBKTNV-1">
          <mxGeometry x="325" y="5120" width="178" height="60" as="geometry" />
        </mxCell>
        <mxCell id="9p4imzftp4YwQ79ZMZ6x-94" value="" style="rounded=0;html=1;jettySize=auto;orthogonalLoop=1;fontSize=11;endArrow=block;endFill=0;endSize=8;strokeWidth=1;shadow=0;labelBackgroundColor=none;edgeStyle=orthogonalEdgeStyle;" edge="1" parent="WIyWlLk6GJQsqaUBKTNV-1">
          <mxGeometry relative="1" as="geometry">
            <mxPoint x="413" y="5180" as="sourcePoint" />
            <mxPoint x="413" y="5230" as="targetPoint" />
            <Array as="points">
              <mxPoint x="413" y="5220" />
              <mxPoint x="413" y="5220" />
            </Array>
          </mxGeometry>
        </mxCell>
        <mxCell id="9p4imzftp4YwQ79ZMZ6x-95" value="ทอดจนสุกประมาณหนึ่งแล้วพลิกอีกด้านขึ้น" style="rounded=0;whiteSpace=wrap;html=1;" vertex="1" parent="WIyWlLk6GJQsqaUBKTNV-1">
          <mxGeometry x="293" y="5231" width="241" height="60" as="geometry" />
        </mxCell>
        <mxCell id="9p4imzftp4YwQ79ZMZ6x-96" value="" style="rounded=0;html=1;jettySize=auto;orthogonalLoop=1;fontSize=11;endArrow=block;endFill=0;endSize=8;strokeWidth=1;shadow=0;labelBackgroundColor=none;edgeStyle=orthogonalEdgeStyle;" edge="1" parent="WIyWlLk6GJQsqaUBKTNV-1">
          <mxGeometry relative="1" as="geometry">
            <mxPoint x="413" y="5291" as="sourcePoint" />
            <mxPoint x="413" y="5341" as="targetPoint" />
            <Array as="points">
              <mxPoint x="413" y="5331" />
              <mxPoint x="413" y="5331" />
            </Array>
          </mxGeometry>
        </mxCell>
        <mxCell id="9p4imzftp4YwQ79ZMZ6x-97" value="ใส่ไข่ของชามที่สองลงไปในกระทะ" style="rounded=0;whiteSpace=wrap;html=1;" vertex="1" parent="WIyWlLk6GJQsqaUBKTNV-1">
          <mxGeometry x="319" y="5340" width="190" height="60" as="geometry" />
        </mxCell>
        <mxCell id="9p4imzftp4YwQ79ZMZ6x-98" value="" style="rounded=0;html=1;jettySize=auto;orthogonalLoop=1;fontSize=11;endArrow=block;endFill=0;endSize=8;strokeWidth=1;shadow=0;labelBackgroundColor=none;edgeStyle=orthogonalEdgeStyle;" edge="1" parent="WIyWlLk6GJQsqaUBKTNV-1">
          <mxGeometry relative="1" as="geometry">
            <mxPoint x="413" y="5400" as="sourcePoint" />
            <mxPoint x="413" y="5450" as="targetPoint" />
            <Array as="points">
              <mxPoint x="413" y="5440" />
              <mxPoint x="413" y="5440" />
            </Array>
          </mxGeometry>
        </mxCell>
        <mxCell id="9p4imzftp4YwQ79ZMZ6x-99" value="รอจนสุกแล้วตักใส่จาน" style="rounded=0;whiteSpace=wrap;html=1;" vertex="1" parent="WIyWlLk6GJQsqaUBKTNV-1">
          <mxGeometry x="341" y="5450" width="146" height="60" as="geometry" />
        </mxCell>
        <mxCell id="9p4imzftp4YwQ79ZMZ6x-100" value="" style="rounded=0;html=1;jettySize=auto;orthogonalLoop=1;fontSize=11;endArrow=block;endFill=0;endSize=8;strokeWidth=1;shadow=0;labelBackgroundColor=none;edgeStyle=orthogonalEdgeStyle;" edge="1" parent="WIyWlLk6GJQsqaUBKTNV-1">
          <mxGeometry relative="1" as="geometry">
            <mxPoint x="414" y="5510" as="sourcePoint" />
            <mxPoint x="414" y="5560" as="targetPoint" />
            <Array as="points">
              <mxPoint x="414" y="5550" />
              <mxPoint x="414" y="5550" />
            </Array>
          </mxGeometry>
        </mxCell>
        <mxCell id="9p4imzftp4YwQ79ZMZ6x-101" value="ตักข้าวจากหม้อหุงข้าวใส่จาน" style="rounded=0;whiteSpace=wrap;html=1;" vertex="1" parent="WIyWlLk6GJQsqaUBKTNV-1">
          <mxGeometry x="324" y="5560" width="180" height="60" as="geometry" />
        </mxCell>
        <mxCell id="9p4imzftp4YwQ79ZMZ6x-102" value="" style="rounded=0;html=1;jettySize=auto;orthogonalLoop=1;fontSize=11;endArrow=block;endFill=0;endSize=8;strokeWidth=1;shadow=0;labelBackgroundColor=none;edgeStyle=orthogonalEdgeStyle;" edge="1" parent="WIyWlLk6GJQsqaUBKTNV-1">
          <mxGeometry relative="1" as="geometry">
            <mxPoint x="413" y="5620" as="sourcePoint" />
            <mxPoint x="413" y="5670" as="targetPoint" />
            <Array as="points">
              <mxPoint x="413" y="5660" />
              <mxPoint x="413" y="5660" />
            </Array>
          </mxGeometry>
        </mxCell>
        <mxCell id="9p4imzftp4YwQ79ZMZ6x-103" value="รับประทาน" style="rounded=0;whiteSpace=wrap;html=1;" vertex="1" parent="WIyWlLk6GJQsqaUBKTNV-1">
          <mxGeometry x="361" y="5670" width="106" height="60" as="geometry" />
        </mxCell>
        <mxCell id="9p4imzftp4YwQ79ZMZ6x-104" value="" style="rounded=0;html=1;jettySize=auto;orthogonalLoop=1;fontSize=11;endArrow=block;endFill=0;endSize=8;strokeWidth=1;shadow=0;labelBackgroundColor=none;edgeStyle=orthogonalEdgeStyle;" edge="1" parent="WIyWlLk6GJQsqaUBKTNV-1">
          <mxGeometry relative="1" as="geometry">
            <mxPoint x="413" y="5730" as="sourcePoint" />
            <mxPoint x="413" y="5780" as="targetPoint" />
            <Array as="points">
              <mxPoint x="413" y="5770" />
              <mxPoint x="413" y="5770" />
            </Array>
          </mxGeometry>
        </mxCell>
        <mxCell id="9p4imzftp4YwQ79ZMZ6x-106" value="Stop" style="ellipse;whiteSpace=wrap;html=1;" vertex="1" parent="WIyWlLk6GJQsqaUBKTNV-1">
          <mxGeometry x="360" y="5780" width="107" height="55" as="geometry" />
        </mxCell>
      </root>
    </mxGraphModel>
  </diagram>
</mxfile>
